<svg width="300" height="100" viewBox="0 0 300 100" fill="none" xmlns="http://www.w3.org/2000/svg" data-fg-d3bl10="0.8:0.125:/src/app/App.tsx:26:9:999:1868:e:svg:etxtetxtetxtxtetxtetetxtetetxtetxtete" data-fgid-d3bl10=":r6:" id="logo-design-1"><defs data-fg-d3bl11="0.8:0.125:/src/app/App.tsx:27:11:1128:244:e:defs:e"><linearGradient id="cGradient" x1="0%" y1="0%" x2="100%" y2="100%" data-fg-d3bl12="0.8:0.125:/src/app/App.tsx:28:13:1147:207:e:linearGradient:ete"><stop offset="0%" stop-color="#3b82f6" data-fg-d3bl13="0.8:0.125:/src/app/App.tsx:29:15:1229:39:e:stop"></stop><stop offset="100%" stop-color="#1d4ed8" data-fg-d3bl14="0.8:0.125:/src/app/App.tsx:30:15:1283:41:e:stop"></stop></linearGradient></defs><path d="M 55 8 C 28 8, 8 28, 8 50 C 8 72, 28 92, 55 92 C 68 92, 79 87, 87 79" stroke="url(#cGradient)" stroke-width="10" fill="none" stroke-linecap="round" data-fg-d3bl16="0.8:0.125:/src/app/App.tsx:35:11:1447:227:e:path"></path><circle cx="42" cy="50" r="18" fill="none" stroke="#3b82f6" stroke-width="1.5" opacity="0.3" data-fg-d3bl18="0.8:0.125:/src/app/App.tsx:44:11:1744:93:e:circle"></circle><path d="M 95 32 L 95 72" stroke="#0f172a" stroke-width="5.5" stroke-linecap="round" data-fg-d3bl21="0.8:0.125:/src/app/App.tsx:48:11:1929:84:e:path"></path><circle cx="118" cy="60" r="11" stroke="#0f172a" stroke-width="5.5" fill="none" data-fg-d3bl23="0.8:0.125:/src/app/App.tsx:51:11:2066:80:e:circle"></circle><path d="M 129 60 L 129 72" stroke="#0f172a" stroke-width="5.5" stroke-linecap="round" data-fg-d3bl24="0.8:0.125:/src/app/App.tsx:52:11:2157:86:e:path"></path><path d="M 145 50 L 145 72" stroke="#0f172a" stroke-width="5.5" stroke-linecap="round" data-fg-d3bl26="0.8:0.125:/src/app/App.tsx:55:11:2275:86:e:path"></path><path d="M 145 52 C 145 50, 148 48, 152 48 C 156 48, 158 50, 158 52" stroke="#0f172a" stroke-width="5.5" stroke-linecap="round" fill="none" data-fg-d3bl27="0.8:0.125:/src/app/App.tsx:56:11:2372:139:e:path"></path><circle cx="176" cy="60" r="11" stroke="#0f172a" stroke-width="5.5" fill="none" data-fg-d3bl29="0.8:0.125:/src/app/App.tsx:59:11:2560:80:e:circle"></circle><circle cx="87" cy="50" r="2" fill="#3b82f6" opacity="0.6" data-fg-d3bl31="0.8:0.125:/src/app/App.tsx:62:11:2719:60:e:circle"></circle><circle cx="92" cy="50" r="1.5" fill="#3b82f6" opacity="0.4" data-fg-d3bl32="0.8:0.125:/src/app/App.tsx:63:11:2790:62:e:circle"></circle></svg>